<svg width="40" height="40" viewBox="0 0 40 40" fill="none" xmlns="http://www.w3.org/2000/svg">
<path d="M21.25 20.625C21.25 20.625 14.375 16.875 14.375 8.125C14.375 3.125 15.625 0.625 15.625 0.625H33.125C33.125 0.625 34.375 3.125 34.375 7.5C34.375 16.875 27.5 20.625 27.5 20.625" stroke="#A8ABB2" stroke-width="1.5" stroke-miterlimit="10" stroke-linejoin="round"/>
<path d="M30 38.125C30 38.8125 29.4375 39.375 28.75 39.375H20C19.3125 39.375 18.75 38.8125 18.75 38.125V36.875C18.75 36.1875 19.3125 35.625 20 35.625H28.75C29.4375 35.625 30 36.1875 30 36.875V38.125Z" stroke="#A8ABB2" stroke-width="1.5" stroke-miterlimit="10" stroke-linejoin="round"/>
<path d="M30 24.375H27.5" stroke="#A8ABB2" stroke-width="1.5" stroke-miterlimit="10" stroke-linejoin="round"/>
<path d="M15 18.75L11.875 21.875H9.375" stroke="#A8ABB2" stroke-width="1.5" stroke-miterlimit="10" stroke-linejoin="round"/>
<path d="M9.375 21.875H3.125V35.625H9.375V21.875Z" stroke="#A8ABB2" stroke-width="1.5" stroke-miterlimit="10" stroke-linejoin="round"/>
<path d="M3.125 21.875H0" stroke="#A8ABB2" stroke-width="1.5" stroke-miterlimit="10" stroke-linejoin="round"/>
<path d="M3.125 35.625H0" stroke="#A8ABB2" stroke-width="1.5" stroke-miterlimit="10" stroke-linejoin="round"/>
<path d="M7.5 33.125H6.25" stroke="#A8ABB2" stroke-width="1.5" stroke-miterlimit="10" stroke-linejoin="round"/>
<path d="M30 24.375C31.0375 24.375 31.875 25.2125 31.875 26.25C31.875 27.2875 31.0375 28.125 30 28.125" stroke="#A8ABB2" stroke-width="1.5" stroke-miterlimit="10" stroke-linejoin="round"/>
<path d="M30 28.125H27.5" stroke="#A8ABB2" stroke-width="1.5" stroke-miterlimit="10" stroke-linejoin="round"/>
<path d="M19.375 20.625H28.75C29.7875 20.625 30.625 21.4625 30.625 22.5C30.625 23.5375 29.7875 24.375 28.75 24.375" stroke="#A8ABB2" stroke-width="1.5" stroke-miterlimit="10" stroke-linejoin="round"/>
<path d="M11.25 34.375H13.125L15.625 35.625H28.125C29.1625 35.625 30 34.7875 30 33.75C30 32.7125 29.1625 31.875 28.125 31.875" stroke="#A8ABB2" stroke-width="1.5" stroke-miterlimit="10" stroke-linejoin="round"/>
<path d="M27.5 31.875H28.75C29.7875 31.875 30.625 31.0375 30.625 30C30.625 28.9625 29.7875 28.125 28.75 28.125" stroke="#A8ABB2" stroke-width="1.5" stroke-miterlimit="10" stroke-linejoin="round"/>
<path d="M25.0714 5.09646C24.9575 4.81171 24.6817 4.625 24.375 4.625C24.0683 4.625 23.7925 4.81171 23.6786 5.09646L22.6172 7.75H20C19.6772 7.75 19.3906 7.95657 19.2885 8.26283C19.1864 8.56909 19.2917 8.90631 19.55 9.1L21.5902 10.6301L20.5536 13.2215C20.4341 13.5204 20.5186 13.8623 20.7637 14.071C21.0088 14.2797 21.3598 14.3088 21.6359 14.1431L24.375 12.4996L27.1141 14.1431C27.3902 14.3088 27.7412 14.2797 27.9863 14.071C28.2314 13.8623 28.3159 13.5204 28.1964 13.2215L27.1598 10.6301L29.2 9.1C29.4583 8.90631 29.5636 8.56909 29.4615 8.26283C29.3594 7.95657 29.0728 7.75 28.75 7.75H26.1328L25.0714 5.09646Z" stroke="#A8ABB2" stroke-width="1.5" stroke-miterlimit="10" stroke-linejoin="round"/>
<path d="M36.875 8.125V6.25H39.375V8.125C39.375 16.25 30.625 16.875 28.75 20" stroke="#A8ABB2" stroke-width="1.5" stroke-miterlimit="10" stroke-linejoin="round"/>
<path d="M11.875 8.125V6.25H9.375V8.125C9.375 16.25 18.125 16.875 20 20" stroke="#A8ABB2" stroke-width="1.5" stroke-miterlimit="10" stroke-linejoin="round"/>
</svg>
