<svg width="55" height="55" viewBox="0 0 55 55" fill="none" xmlns="http://www.w3.org/2000/svg">
<g clip-path="url(#clip0_1_398)">
<path d="M49.8438 54.1406C52.2168 54.1406 54.1406 52.2168 54.1406 49.8438C54.1406 47.4707 52.2168 45.5469 49.8438 45.5469C47.4707 45.5469 45.5469 47.4707 45.5469 49.8438C45.5469 52.2168 47.4707 54.1406 49.8438 54.1406Z" stroke="#A8ABB2" stroke-width="1.5" stroke-miterlimit="10" stroke-linejoin="round"/>
<path d="M5.15625 54.1406C7.52935 54.1406 9.45312 52.2168 9.45312 49.8438C9.45312 47.4707 7.52935 45.5469 5.15625 45.5469C2.78315 45.5469 0.859375 47.4707 0.859375 49.8438C0.859375 52.2168 2.78315 54.1406 5.15625 54.1406Z" stroke="#A8ABB2" stroke-width="1.5" stroke-miterlimit="10" stroke-linejoin="round"/>
<path d="M49.8438 9.45312C52.2168 9.45312 54.1406 7.52935 54.1406 5.15625C54.1406 2.78315 52.2168 0.859375 49.8438 0.859375C47.4707 0.859375 45.5469 2.78315 45.5469 5.15625C45.5469 7.52935 47.4707 9.45312 49.8438 9.45312Z" stroke="#A8ABB2" stroke-width="1.5" stroke-miterlimit="10" stroke-linejoin="round"/>
<path d="M5.15625 9.45312C7.52935 9.45312 9.45312 7.52935 9.45312 5.15625C9.45312 2.78315 7.52935 0.859375 5.15625 0.859375C2.78315 0.859375 0.859375 2.78315 0.859375 5.15625C0.859375 7.52935 2.78315 9.45312 5.15625 9.45312Z" stroke="#A8ABB2" stroke-width="1.5" stroke-miterlimit="10" stroke-linejoin="round"/>
<path d="M12.8906 5.15625H14.6094" stroke="#A8ABB2" stroke-width="1.5" stroke-miterlimit="10" stroke-linejoin="round"/>
<path d="M16.3281 5.15625H18.0469" stroke="#A8ABB2" stroke-width="1.5" stroke-miterlimit="10" stroke-linejoin="round"/>
<path d="M19.7656 5.15625H21.4844" stroke="#A8ABB2" stroke-width="1.5" stroke-miterlimit="10" stroke-linejoin="round"/>
<path d="M23.2031 5.15625H24.9219" stroke="#A8ABB2" stroke-width="1.5" stroke-miterlimit="10" stroke-linejoin="round"/>
<path d="M26.6406 5.15625H28.3594" stroke="#A8ABB2" stroke-width="1.5" stroke-miterlimit="10" stroke-linejoin="round"/>
<path d="M30.0781 5.15625H31.7969" stroke="#A8ABB2" stroke-width="1.5" stroke-miterlimit="10" stroke-linejoin="round"/>
<path d="M33.5156 5.15625H35.2344" stroke="#A8ABB2" stroke-width="1.5" stroke-miterlimit="10" stroke-linejoin="round"/>
<path d="M36.9531 5.15625H38.6719" stroke="#A8ABB2" stroke-width="1.5" stroke-miterlimit="10" stroke-linejoin="round"/>
<path d="M40.3906 5.15625H42.1094" stroke="#A8ABB2" stroke-width="1.5" stroke-miterlimit="10" stroke-linejoin="round"/>
<path d="M12.8906 49.8438H14.6094" stroke="#A8ABB2" stroke-width="1.5" stroke-miterlimit="10" stroke-linejoin="round"/>
<path d="M16.3281 49.8438H18.0469" stroke="#A8ABB2" stroke-width="1.5" stroke-miterlimit="10" stroke-linejoin="round"/>
<path d="M19.7656 49.8438H21.4844" stroke="#A8ABB2" stroke-width="1.5" stroke-miterlimit="10" stroke-linejoin="round"/>
<path d="M23.2031 49.8438H24.9219" stroke="#A8ABB2" stroke-width="1.5" stroke-miterlimit="10" stroke-linejoin="round"/>
<path d="M26.6406 49.8438H28.3594" stroke="#A8ABB2" stroke-width="1.5" stroke-miterlimit="10" stroke-linejoin="round"/>
<path d="M30.0781 49.8438H31.7969" stroke="#A8ABB2" stroke-width="1.5" stroke-miterlimit="10" stroke-linejoin="round"/>
<path d="M33.5156 49.8438H35.2344" stroke="#A8ABB2" stroke-width="1.5" stroke-miterlimit="10" stroke-linejoin="round"/>
<path d="M36.9531 49.8438H38.6719" stroke="#A8ABB2" stroke-width="1.5" stroke-miterlimit="10" stroke-linejoin="round"/>
<path d="M40.3906 49.8438H42.1094" stroke="#A8ABB2" stroke-width="1.5" stroke-miterlimit="10" stroke-linejoin="round"/>
<path d="M5.15625 12.8906V14.6094" stroke="#A8ABB2" stroke-width="1.5" stroke-miterlimit="10" stroke-linejoin="round"/>
<path d="M5.15625 16.3281V18.0469" stroke="#A8ABB2" stroke-width="1.5" stroke-miterlimit="10" stroke-linejoin="round"/>
<path d="M5.15625 19.7656V21.4844" stroke="#A8ABB2" stroke-width="1.5" stroke-miterlimit="10" stroke-linejoin="round"/>
<path d="M5.15625 23.2031V24.9219" stroke="#A8ABB2" stroke-width="1.5" stroke-miterlimit="10" stroke-linejoin="round"/>
<path d="M5.15625 26.6406V28.3594" stroke="#A8ABB2" stroke-width="1.5" stroke-miterlimit="10" stroke-linejoin="round"/>
<path d="M5.15625 30.0781V31.7969" stroke="#A8ABB2" stroke-width="1.5" stroke-miterlimit="10" stroke-linejoin="round"/>
<path d="M5.15625 33.5156V35.2344" stroke="#A8ABB2" stroke-width="1.5" stroke-miterlimit="10" stroke-linejoin="round"/>
<path d="M5.15625 36.9531V38.6719" stroke="#A8ABB2" stroke-width="1.5" stroke-miterlimit="10" stroke-linejoin="round"/>
<path d="M5.15625 40.3906V42.1094" stroke="#A8ABB2" stroke-width="1.5" stroke-miterlimit="10" stroke-linejoin="round"/>
<path d="M49.8438 12.8906V14.6094" stroke="#A8ABB2" stroke-width="1.5" stroke-miterlimit="10" stroke-linejoin="round"/>
<path d="M49.8438 16.3281V18.0469" stroke="#A8ABB2" stroke-width="1.5" stroke-miterlimit="10" stroke-linejoin="round"/>
<path d="M49.8438 19.7656V21.4844" stroke="#A8ABB2" stroke-width="1.5" stroke-miterlimit="10" stroke-linejoin="round"/>
<path d="M49.8438 23.2031V24.9219" stroke="#A8ABB2" stroke-width="1.5" stroke-miterlimit="10" stroke-linejoin="round"/>
<path d="M49.8438 26.6406V28.3594" stroke="#A8ABB2" stroke-width="1.5" stroke-miterlimit="10" stroke-linejoin="round"/>
<path d="M49.8438 30.0781V31.7969" stroke="#A8ABB2" stroke-width="1.5" stroke-miterlimit="10" stroke-linejoin="round"/>
<path d="M49.8438 33.5156V35.2344" stroke="#A8ABB2" stroke-width="1.5" stroke-miterlimit="10" stroke-linejoin="round"/>
<path d="M49.8438 36.9531V38.6719" stroke="#A8ABB2" stroke-width="1.5" stroke-miterlimit="10" stroke-linejoin="round"/>
<path d="M49.8438 40.3906V42.1094" stroke="#A8ABB2" stroke-width="1.5" stroke-miterlimit="10" stroke-linejoin="round"/>
<path d="M27.5 43.8281C30.8223 43.8281 33.5156 36.5178 33.5156 27.5C33.5156 18.4822 30.8223 11.1719 27.5 11.1719C24.1777 11.1719 21.4844 18.4822 21.4844 27.5C21.4844 36.5178 24.1777 43.8281 27.5 43.8281Z" stroke="#A8ABB2" stroke-width="1.5" stroke-miterlimit="10" stroke-linejoin="round"/>
<path d="M27.5 43.8281C33.6701 43.8281 38.6719 36.5178 38.6719 27.5C38.6719 18.4822 33.6701 11.1719 27.5 11.1719C21.3299 11.1719 16.3281 18.4822 16.3281 27.5C16.3281 36.5178 21.3299 43.8281 27.5 43.8281Z" stroke="#A8ABB2" stroke-width="1.5" stroke-miterlimit="10" stroke-linejoin="round"/>
<path d="M27.5 11.1719V43.8281" stroke="#A8ABB2" stroke-width="1.5" stroke-miterlimit="10" stroke-linejoin="round"/>
<path d="M11.1719 27.5H43.8281" stroke="#FF7300" stroke-width="1.5" stroke-miterlimit="10" stroke-linejoin="round"/>
<path d="M27.5 43.8281C36.5178 43.8281 43.8281 36.5178 43.8281 27.5C43.8281 18.4822 36.5178 11.1719 27.5 11.1719C18.4822 11.1719 11.1719 18.4822 11.1719 27.5C11.1719 36.5178 18.4822 43.8281 27.5 43.8281Z" stroke="#FF7300" stroke-width="1.5" stroke-miterlimit="10" stroke-linejoin="round"/>
<path d="M43.8281 42.9688H42.1094" stroke="#A8ABB2" stroke-width="1.5" stroke-miterlimit="10" stroke-linejoin="round"/>
<path d="M12.0312 42.9688H10.3125" stroke="#A8ABB2" stroke-width="1.5" stroke-miterlimit="10" stroke-linejoin="round"/>
<path d="M43.8281 12.0312H42.1094" stroke="#A8ABB2" stroke-width="1.5" stroke-miterlimit="10" stroke-linejoin="round"/>
<path d="M12.0312 12.0312H10.3125" stroke="#A8ABB2" stroke-width="1.5" stroke-miterlimit="10" stroke-linejoin="round"/>
</g>
<defs>
<clipPath id="clip0_1_398">
<rect width="55" height="55" fill="white"/>
</clipPath>
</defs>
</svg>
