<svg width="40" height="40" viewBox="0 0 40 40" fill="none" xmlns="http://www.w3.org/2000/svg">
<path d="M16.3226 36.5484H1V1H39V15.7097" stroke="#A8ABB2" stroke-width="1.5" stroke-miterlimit="10"/>
<path d="M1 5.90332H39" stroke="#A8ABB2" stroke-width="1.5" stroke-miterlimit="10"/>
<path d="M2.83871 3.45166H4.06452" stroke="#A8ABB2" stroke-width="1.5" stroke-miterlimit="10"/>
<path d="M5.29031 3.45166H6.51612" stroke="#A8ABB2" stroke-width="1.5" stroke-miterlimit="10"/>
<path d="M7.74194 3.45166H8.96775" stroke="#A8ABB2" stroke-width="1.5" stroke-miterlimit="10"/>
<path d="M10.8065 1V5.90323" stroke="#A8ABB2" stroke-width="1.5" stroke-miterlimit="10"/>
<path d="M12.6452 3.45166H37.1613" stroke="#A8ABB2" stroke-width="1.5" stroke-miterlimit="10"/>
<path d="M15.0968 34.0967H3.4516V8.35474H36.5484V14.4838" stroke="#A8ABB2" stroke-width="1.5" stroke-miterlimit="10"/>
<path d="M27.3548 39C33.7863 39 39 33.7863 39 27.3549C39 20.9234 33.7863 15.7097 27.3548 15.7097C20.9234 15.7097 15.7097 20.9234 15.7097 27.3549C15.7097 33.7863 20.9234 39 27.3548 39Z" stroke="#A8ABB2" stroke-width="1.5" stroke-miterlimit="10"/>
<path d="M27.3548 36.5485C32.4323 36.5485 36.5484 32.4324 36.5484 27.3549C36.5484 22.2775 32.4323 18.1614 27.3548 18.1614C22.2774 18.1614 18.1613 22.2775 18.1613 27.3549C18.1613 32.4324 22.2774 36.5485 27.3548 36.5485Z" stroke="#A8ABB2" stroke-width="1.5" stroke-miterlimit="10"/>
<path d="M35.3226 19.3872L37.7742 16.9355" stroke="#A8ABB2" stroke-width="1.5" stroke-miterlimit="10"/>
<path d="M36.5484 16.3225L38.3871 18.1612" stroke="#A8ABB2" stroke-width="1.5" stroke-miterlimit="10"/>
<path d="M19.3871 19.3872L16.9355 16.9355" stroke="#A8ABB2" stroke-width="1.5" stroke-miterlimit="10"/>
<path d="M18.1613 16.3225L16.3226 18.1612" stroke="#A8ABB2" stroke-width="1.5" stroke-miterlimit="10"/>
<path d="M27.3548 15.7097V13.2581" stroke="#A8ABB2" stroke-width="1.5" stroke-miterlimit="10"/>
<path d="M25.5161 13.2581H29.1935" stroke="#A8ABB2" stroke-width="1.5" stroke-miterlimit="10"/>
<path d="M27.3548 27.3547H32.2581" stroke="#A8ABB2" stroke-width="1.5" stroke-miterlimit="10"/>
<path d="M27.3548 27.9677C27.6933 27.9677 27.9677 27.6933 27.9677 27.3548C27.9677 27.0163 27.6933 26.7419 27.3548 26.7419C27.0163 26.7419 26.7419 27.0163 26.7419 27.3548C26.7419 27.6933 27.0163 27.9677 27.3548 27.9677Z" stroke="#A8ABB2" stroke-width="1.5" stroke-miterlimit="10"/>
<path d="M34.7097 27.3547H33.4839" stroke="#A8ABB2" stroke-width="1.5" stroke-miterlimit="10"/>
<path d="M21.2258 27.3547H20" stroke="#A8ABB2" stroke-width="1.5" stroke-miterlimit="10"/>
<path d="M26.7419 20.6128H27.9677" stroke="#A8ABB2" stroke-width="1.5" stroke-miterlimit="10"/>
<path d="M26.7419 34.0967H27.9677" stroke="#A8ABB2" stroke-width="1.5" stroke-miterlimit="10"/>
<path d="M22.4516 23.0645H23.6774" stroke="#A8ABB2" stroke-width="1.5" stroke-miterlimit="10"/>
<path d="M31.0323 23.0645H32.2581" stroke="#A8ABB2" stroke-width="1.5" stroke-miterlimit="10"/>
<path d="M22.4516 31.6453H23.6774" stroke="#A8ABB2" stroke-width="1.5" stroke-miterlimit="10"/>
<path d="M31.0323 31.6453H32.2581" stroke="#A8ABB2" stroke-width="1.5" stroke-miterlimit="10"/>
</svg>
