<svg width="40" height="35" viewBox="0 0 40 35" fill="none" xmlns="http://www.w3.org/2000/svg">
<path d="M34.375 6.25V2.5C34.375 1.4625 33.5375 0.625 32.5 0.625H2.5C1.4625 0.625 0.625 1.4625 0.625 2.5V26.25C0.625 27.2875 1.4625 28.125 2.5 28.125H22.5" stroke="#A8ABB2" stroke-width="1.5" stroke-miterlimit="10"/>
<path d="M20.625 28.125V34.375" stroke="#A8ABB2" stroke-width="1.5" stroke-miterlimit="10"/>
<path d="M14.375 34.375V28.125" stroke="#A8ABB2" stroke-width="1.5" stroke-miterlimit="10"/>
<path d="M12.5 34.375H22.5" stroke="#A8ABB2" stroke-width="1.5" stroke-miterlimit="10"/>
<path d="M0.625 23.125H22.5" stroke="#A8ABB2" stroke-width="1.5" stroke-miterlimit="10"/>
<path d="M16.875 25.625H18.125" stroke="#A8ABB2" stroke-width="1.5" stroke-miterlimit="10"/>
<path d="M24.375 19V9.375C24.375 8.6875 24.9375 8.125 25.625 8.125H38.125C38.8125 8.125 39.375 8.6875 39.375 9.375V33.125C39.375 33.8125 38.8125 34.375 38.125 34.375H25.625C24.9375 34.375 24.375 33.8125 24.375 33.125V17.5" stroke="#A8ABB2" stroke-width="1.5" stroke-miterlimit="10"/>
<path d="M33.125 31.875H30.625" stroke="#A8ABB2" stroke-width="1.5" stroke-miterlimit="10"/>
<path d="M24.375 29.375H39.375" stroke="#A8ABB2" stroke-width="1.5" stroke-miterlimit="10"/>
<path d="M3.125 21.25V3.125H32.5" stroke="#A8ABB2" stroke-width="1.5" stroke-miterlimit="10"/>
<path d="M5 8.125H6.25" stroke="#A8ABB2" stroke-width="1.5" stroke-miterlimit="10"/>
<path d="M7.5 8.125H8.75" stroke="#A8ABB2" stroke-width="1.5" stroke-miterlimit="10"/>
<path d="M10 8.125H11.25" stroke="#A8ABB2" stroke-width="1.5" stroke-miterlimit="10"/>
<path d="M5 10.625H6.25" stroke="#A8ABB2" stroke-width="1.5" stroke-miterlimit="10"/>
<path d="M7.5 10.625H8.75" stroke="#A8ABB2" stroke-width="1.5" stroke-miterlimit="10"/>
<path d="M10 10.625H11.25" stroke="#A8ABB2" stroke-width="1.5" stroke-miterlimit="10"/>
<path d="M5 13.125H6.25" stroke="#A8ABB2" stroke-width="1.5" stroke-miterlimit="10"/>
<path d="M7.5 13.125H8.75" stroke="#A8ABB2" stroke-width="1.5" stroke-miterlimit="10"/>
<path d="M12.5 8.125H13.75" stroke="#A8ABB2" stroke-width="1.5" stroke-miterlimit="10"/>
<path d="M5 5.625H6.25" stroke="#A8ABB2" stroke-width="1.5" stroke-miterlimit="10"/>
<path d="M7.5 5.625H8.75" stroke="#A8ABB2" stroke-width="1.5" stroke-miterlimit="10"/>
<path d="M10 5.625H11.25" stroke="#A8ABB2" stroke-width="1.5" stroke-miterlimit="10"/>
<path d="M12.5 5.625H13.75" stroke="#A8ABB2" stroke-width="1.5" stroke-miterlimit="10"/>
<path d="M15 8.125H16.25" stroke="#A8ABB2" stroke-width="1.5" stroke-miterlimit="10"/>
<path d="M15 5.625H16.25" stroke="#A8ABB2" stroke-width="1.5" stroke-miterlimit="10"/>
<path d="M33.75 24.375H35" stroke="#A8ABB2" stroke-width="1.5" stroke-miterlimit="10"/>
<path d="M36.25 24.375H37.5" stroke="#A8ABB2" stroke-width="1.5" stroke-miterlimit="10"/>
<path d="M33.75 21.875H35" stroke="#A8ABB2" stroke-width="1.5" stroke-miterlimit="10"/>
<path d="M36.25 21.875H37.5" stroke="#A8ABB2" stroke-width="1.5" stroke-miterlimit="10"/>
<path d="M31.25 21.875H32.5" stroke="#A8ABB2" stroke-width="1.5" stroke-miterlimit="10"/>
<path d="M26.25 24.375H27.5" stroke="#A8ABB2" stroke-width="1.5" stroke-miterlimit="10"/>
<path d="M28.75 24.375H30" stroke="#A8ABB2" stroke-width="1.5" stroke-miterlimit="10"/>
<path d="M31.25 24.375H32.5" stroke="#A8ABB2" stroke-width="1.5" stroke-miterlimit="10"/>
<path d="M33.75 26.875H35" stroke="#A8ABB2" stroke-width="1.5" stroke-miterlimit="10"/>
<path d="M36.25 26.875H37.5" stroke="#A8ABB2" stroke-width="1.5" stroke-miterlimit="10"/>
<path d="M26.25 26.875H27.5" stroke="#A8ABB2" stroke-width="1.5" stroke-miterlimit="10"/>
<path d="M28.75 26.875H30" stroke="#A8ABB2" stroke-width="1.5" stroke-miterlimit="10"/>
<path d="M31.25 26.875H32.5" stroke="#A8ABB2" stroke-width="1.5" stroke-miterlimit="10"/>
</svg>
