<svg width="55" height="55" viewBox="0 0 55 55" fill="none" xmlns="http://www.w3.org/2000/svg">
<path d="M4.29688 0V55" stroke="#A8ABB2" stroke-width="1.5" stroke-miterlimit="10" stroke-linejoin="round"/>
<path d="M0 50.7031H55" stroke="#A8ABB2" stroke-width="1.5" stroke-miterlimit="10" stroke-linejoin="round"/>
<path d="M9.45312 38.6719L14.6094 33.5156" stroke="#FF7300" stroke-width="1.5" stroke-miterlimit="10"/>
<path d="M7.73438 48.125V46.4062" stroke="#A8ABB2" stroke-width="1.5" stroke-miterlimit="10" stroke-linejoin="round"/>
<path d="M11.1719 48.125V46.4062" stroke="#A8ABB2" stroke-width="1.5" stroke-miterlimit="10" stroke-linejoin="round"/>
<path d="M14.6094 48.125V46.4062" stroke="#A8ABB2" stroke-width="1.5" stroke-miterlimit="10" stroke-linejoin="round"/>
<path d="M18.0469 48.125V46.4062" stroke="#A8ABB2" stroke-width="1.5" stroke-miterlimit="10" stroke-linejoin="round"/>
<path d="M21.4844 48.125V46.4062" stroke="#A8ABB2" stroke-width="1.5" stroke-miterlimit="10" stroke-linejoin="round"/>
<path d="M24.9219 48.125V46.4062" stroke="#A8ABB2" stroke-width="1.5" stroke-miterlimit="10" stroke-linejoin="round"/>
<path d="M28.3594 48.125V46.4062" stroke="#A8ABB2" stroke-width="1.5" stroke-miterlimit="10" stroke-linejoin="round"/>
<path d="M31.7969 48.125V46.4062" stroke="#A8ABB2" stroke-width="1.5" stroke-miterlimit="10" stroke-linejoin="round"/>
<path d="M35.2344 48.125V46.4062" stroke="#A8ABB2" stroke-width="1.5" stroke-miterlimit="10" stroke-linejoin="round"/>
<path d="M38.6719 48.125V46.4062" stroke="#A8ABB2" stroke-width="1.5" stroke-miterlimit="10" stroke-linejoin="round"/>
<path d="M42.1094 48.125V46.4062" stroke="#A8ABB2" stroke-width="1.5" stroke-miterlimit="10" stroke-linejoin="round"/>
<path d="M45.5469 48.125V46.4062" stroke="#A8ABB2" stroke-width="1.5" stroke-miterlimit="10" stroke-linejoin="round"/>
<path d="M48.9844 48.125V46.4062" stroke="#A8ABB2" stroke-width="1.5" stroke-miterlimit="10" stroke-linejoin="round"/>
<path d="M52.4219 48.125V46.4062" stroke="#A8ABB2" stroke-width="1.5" stroke-miterlimit="10" stroke-linejoin="round"/>
<path d="M19.7656 28.3594L24.0625 24.0625H36.0938L52.4219 7.73438" stroke="#FF7300" stroke-width="1.5" stroke-miterlimit="10"/>
<path d="M8.59375 9.45312H19.7656L24.9219 14.6094L30.0781 9.45312H34.375L40.3906 15.4688" stroke="#A8ABB2" stroke-width="1.5" stroke-miterlimit="10"/>
<path d="M44.6875 19.7656L52.4219 27.5" stroke="#A8ABB2" stroke-width="1.5" stroke-miterlimit="10"/>
<path d="M48.125 27.5H52.4219V23.2031" stroke="#A8ABB2" stroke-width="1.5" stroke-miterlimit="10"/>
<path d="M52.4219 12.0312V7.73438H48.125" stroke="#FF7300" stroke-width="1.5" stroke-miterlimit="10"/>
<path d="M48.9844 41.25L52.4219 37.8125L48.9844 34.375" stroke="#A8ABB2" stroke-width="1.5" stroke-miterlimit="10"/>
<path d="M52.4219 37.8125H37.8125L32.6562 32.6562L25.7812 39.5312L9.45312 23.2031" stroke="#A8ABB2" stroke-width="1.5" stroke-miterlimit="10"/>
</svg>
