<svg width="55" height="55" viewBox="0 0 55 55" fill="none" xmlns="http://www.w3.org/2000/svg">
<path d="M8.6625 8.6625C13.4836 3.84141 20.1437 0.859375 27.5 0.859375C42.2125 0.859375 54.1406 12.7875 54.1406 27.5C54.1406 42.2125 42.2125 54.1406 27.5 54.1406C12.7875 54.1406 0.859375 42.2125 0.859375 27.5" stroke="#A8ABB2" stroke-width="1.5" stroke-miterlimit="10"/>
<path d="M11.0945 11.0945C15.2883 6.89219 21.0891 4.29688 27.5 4.29688C40.3133 4.29688 50.7031 14.6867 50.7031 27.5C50.7031 40.3133 40.3133 50.7031 27.5 50.7031C19.0867 50.7031 11.7219 46.2258 7.65703 39.5312" stroke="#A8ABB2" stroke-width="1.5" stroke-miterlimit="10"/>
<path d="M15.95 15.9586C18.9062 13.0023 22.9883 11.1719 27.5 11.1719C36.5148 11.1719 43.8281 18.4852 43.8281 27.5C43.8281 34.7188 39.1445 40.8375 32.6562 42.9945" stroke="#A8ABB2" stroke-width="1.5" stroke-miterlimit="10"/>
<path d="M18.382 18.382C20.7195 16.0531 23.9422 14.6094 27.5 14.6094C34.6156 14.6094 40.3906 20.3844 40.3906 27.5C40.3906 29.0039 40.1328 30.4563 39.6601 31.7969" stroke="#A8ABB2" stroke-width="1.5" stroke-miterlimit="10"/>
<path d="M3.4375 28.3594H5.15625" stroke="#FF7300" stroke-width="1.5" stroke-miterlimit="10"/>
<path d="M6.875 28.3594H8.59375" stroke="#A8ABB2" stroke-width="1.5" stroke-miterlimit="10"/>
<path d="M10.3125 28.3594H12.0312" stroke="#A8ABB2" stroke-width="1.5" stroke-miterlimit="10"/>
<path d="M13.75 28.3594H15.4688" stroke="#FF7300" stroke-width="1.5" stroke-miterlimit="10"/>
<path d="M17.1875 28.3594H18.9062" stroke="#A8ABB2" stroke-width="1.5" stroke-miterlimit="10"/>
<path d="M20.8141 20.8141C22.5242 19.1039 24.8875 18.0469 27.5 18.0469C30.8172 18.0469 33.7391 19.757 35.4234 22.3438" stroke="#FF7300" stroke-width="1.5" stroke-miterlimit="10"/>
<path d="M13.5266 13.5266C17.1016 9.94297 22.043 7.73438 27.5 7.73438C38.4141 7.73438 47.2656 16.5859 47.2656 27.5C47.2656 38.4141 38.4141 47.2656 27.5 47.2656C25.4031 47.2656 23.375 46.9391 21.4758 46.3289" stroke="#FF7300" stroke-width="1.5" stroke-miterlimit="10"/>
</svg>
