<svg width="49" height="55" viewBox="0 0 49 55" fill="none" xmlns="http://www.w3.org/2000/svg">
<path d="M15.4688 12.8906C15.4688 36.0938 24.0625 48.9844 24.0625 48.9844" stroke="#A8ABB2" stroke-width="1.5" stroke-miterlimit="10" stroke-linejoin="round"/>
<path d="M32.6562 12.8906C32.6562 36.0938 24.0625 48.9844 24.0625 48.9844" stroke="#A8ABB2" stroke-width="1.5" stroke-miterlimit="10" stroke-linejoin="round"/>
<path d="M24.0625 0.859375H24.9219C24.9219 0.859375 30.0781 8.59375 36.0938 8.59375H47.2656V12.0312C47.2656 44.6875 24.0625 54.1406 24.0625 54.1406C24.0625 54.1406 0.859375 44.6875 0.859375 12.0312V8.59375H12.0312C18.0469 8.59375 23.2031 0.859375 23.2031 0.859375H24.0625Z" stroke="#A8ABB2" stroke-width="1.5" stroke-miterlimit="10" stroke-linejoin="round"/>
<path d="M24.0625 48.9844C24.0625 48.9844 42.9688 38.6719 42.9688 12.8906H36.0938C27.5 12.8906 24.0625 6.875 24.0625 6.875C24.0625 6.875 20.625 12.8906 12.0312 12.8906H5.15625C5.15625 38.6719 24.0625 48.9844 24.0625 48.9844Z" stroke="#FF7300" stroke-width="1.5" stroke-miterlimit="10" stroke-linejoin="round"/>
<path d="M24.0625 15.4688V17.1875" stroke="#A8ABB2" stroke-width="1.5" stroke-miterlimit="10" stroke-linejoin="round"/>
<path d="M24.0625 12.0312V13.75" stroke="#A8ABB2" stroke-width="1.5" stroke-miterlimit="10" stroke-linejoin="round"/>
<path d="M24.0625 18.9062V20.625" stroke="#A8ABB2" stroke-width="1.5" stroke-miterlimit="10" stroke-linejoin="round"/>
<path d="M10.3125 15.4688V17.1875" stroke="#A8ABB2" stroke-width="1.5" stroke-miterlimit="10" stroke-linejoin="round"/>
<path d="M10.3125 18.9062V20.625" stroke="#A8ABB2" stroke-width="1.5" stroke-miterlimit="10" stroke-linejoin="round"/>
<path d="M37.8125 15.4688V17.1875" stroke="#A8ABB2" stroke-width="1.5" stroke-miterlimit="10" stroke-linejoin="round"/>
<path d="M37.8125 18.9062V20.625" stroke="#A8ABB2" stroke-width="1.5" stroke-miterlimit="10" stroke-linejoin="round"/>
</svg>
